ply
format ascii 1.0
element vertex 8
property float x
property float y
property float z
property uchar red
property uchar green
property uchar blue
element face 12
property list uchar int vertex_indices
end_header
-2.0 0.0 -2.0 200 200 200
2.0 0.0 -2.0 200 200 200
2.0 0.0 2.0 200 200 200
-2.0 0.0 2.0 200 200 200
-2.0 2.5 -2.0 200 200 200
2.0 2.5 -2.0 200 200 200
2.0 2.5 2.0 200 200 200
-2.0 2.5 2.0 200 200 200
3 0 1 2
3 0 2 3
3 4 6 5
3 4 7 6
3 0 4 5
3 0 5 1
3 1 5 6
3 1 6 2
3 2 6 7
3 2 7 3
3 3 7 4
3 3 4 0
